<svg width="61" height="55" viewBox="0 0 61 55" fill="none" xmlns="http://www.w3.org/2000/svg">
<path d="M30.5 25.7734L29.2891 24.6797C27.9089 23.4297 26.9062 22.5052 26.2812 21.9062C25.6562 21.3073 24.9531 20.5651 24.1719 19.6797C23.4167 18.7943 22.8958 18 22.6094 17.2969C22.3229 16.5677 22.1797 15.8255 22.1797 15.0703C22.1797 13.7943 22.6094 12.7135 23.4688 11.8281C24.3542 10.9427 25.4479 10.5 26.75 10.5C28.2604 10.5 29.5104 11.0859 30.5 12.2578C31.4896 11.0859 32.7396 10.5 34.25 10.5C35.5521 10.5 36.6328 10.9427 37.4922 11.8281C38.3776 12.7135 38.8203 13.7943 38.8203 15.0703C38.8203 16.0859 38.4818 17.1406 37.8047 18.2344C37.1276 19.3281 36.3854 20.2786 35.5781 21.0859C34.7969 21.8932 33.5078 23.1042 31.7109 24.7188L30.5 25.7734Z" fill="#3F51B5"/>
<path d="M8.1582 37.4688V46H6.6875V37.4688H8.1582ZM11.6387 41.2012V42.3672H7.7832V41.2012H11.6387ZM12.125 37.4688V38.6406H7.7832V37.4688H12.125ZM16.5312 44.7285V41.7051C16.5312 41.4785 16.4902 41.2832 16.4082 41.1191C16.3262 40.9551 16.2012 40.8281 16.0332 40.7383C15.8691 40.6484 15.6621 40.6035 15.4121 40.6035C15.1816 40.6035 14.9824 40.6426 14.8145 40.7207C14.6465 40.7988 14.5156 40.9043 14.4219 41.0371C14.3281 41.1699 14.2812 41.3203 14.2812 41.4883H12.875C12.875 41.2383 12.9355 40.9961 13.0566 40.7617C13.1777 40.5273 13.3535 40.3184 13.584 40.1348C13.8145 39.9512 14.0898 39.8066 14.4102 39.7012C14.7305 39.5957 15.0898 39.543 15.4883 39.543C15.9648 39.543 16.3867 39.623 16.7539 39.7832C17.125 39.9434 17.416 40.1855 17.627 40.5098C17.8418 40.8301 17.9492 41.2324 17.9492 41.7168V44.5352C17.9492 44.8242 17.9688 45.084 18.0078 45.3145C18.0508 45.541 18.1113 45.7383 18.1895 45.9062V46H16.7422C16.6758 45.8477 16.623 45.6543 16.584 45.4199C16.5488 45.1816 16.5312 44.9512 16.5312 44.7285ZM16.7363 42.1445L16.748 43.0176H15.7344C15.4727 43.0176 15.2422 43.043 15.043 43.0938C14.8438 43.1406 14.6777 43.2109 14.5449 43.3047C14.4121 43.3984 14.3125 43.5117 14.2461 43.6445C14.1797 43.7773 14.1465 43.9277 14.1465 44.0957C14.1465 44.2637 14.1855 44.418 14.2637 44.5586C14.3418 44.6953 14.4551 44.8027 14.6035 44.8809C14.7559 44.959 14.9395 44.998 15.1543 44.998C15.4434 44.998 15.6953 44.9395 15.9102 44.8223C16.1289 44.7012 16.3008 44.5547 16.4258 44.3828C16.5508 44.207 16.6172 44.041 16.625 43.8848L17.082 44.5117C17.0352 44.6719 16.9551 44.8438 16.8418 45.0273C16.7285 45.2109 16.5801 45.3867 16.3965 45.5547C16.2168 45.7188 16 45.8535 15.7461 45.959C15.4961 46.0645 15.207 46.1172 14.8789 46.1172C14.4648 46.1172 14.0957 46.0352 13.7715 45.8711C13.4473 45.7031 13.1934 45.4785 13.0098 45.1973C12.8262 44.9121 12.7344 44.5898 12.7344 44.2305C12.7344 43.8945 12.7969 43.5977 12.9219 43.3398C13.0508 43.0781 13.2383 42.8594 13.4844 42.6836C13.7344 42.5078 14.0391 42.375 14.3984 42.2852C14.7578 42.1914 15.168 42.1445 15.6289 42.1445H16.7363ZM21.3945 44.8809L22.9473 39.6602H24.4121L22.209 46H21.2949L21.3945 44.8809ZM20.2051 39.6602L21.7871 44.9043L21.8633 46H20.9492L18.7344 39.6602H20.2051ZM24.9219 42.9004V42.7656C24.9219 42.3086 24.9883 41.8848 25.1211 41.4941C25.2539 41.0996 25.4453 40.7578 25.6953 40.4688C25.9492 40.1758 26.2578 39.9492 26.6211 39.7891C26.9883 39.625 27.4023 39.543 27.8633 39.543C28.3281 39.543 28.7422 39.625 29.1055 39.7891C29.4727 39.9492 29.7832 40.1758 30.0371 40.4688C30.291 40.7578 30.4844 41.0996 30.6172 41.4941C30.75 41.8848 30.8164 42.3086 30.8164 42.7656V42.9004C30.8164 43.3574 30.75 43.7812 30.6172 44.1719C30.4844 44.5625 30.291 44.9043 30.0371 45.1973C29.7832 45.4863 29.4746 45.7129 29.1113 45.877C28.748 46.0371 28.3359 46.1172 27.875 46.1172C27.4102 46.1172 26.9941 46.0371 26.627 45.877C26.2637 45.7129 25.9551 45.4863 25.7012 45.1973C25.4473 44.9043 25.2539 44.5625 25.1211 44.1719C24.9883 43.7812 24.9219 43.3574 24.9219 42.9004ZM26.334 42.7656V42.9004C26.334 43.1855 26.3633 43.4551 26.4219 43.709C26.4805 43.9629 26.5723 44.1855 26.6973 44.377C26.8223 44.5684 26.9824 44.7188 27.1777 44.8281C27.373 44.9375 27.6055 44.9922 27.875 44.9922C28.1367 44.9922 28.3633 44.9375 28.5547 44.8281C28.75 44.7188 28.9102 44.5684 29.0352 44.377C29.1602 44.1855 29.252 43.9629 29.3105 43.709C29.373 43.4551 29.4043 43.1855 29.4043 42.9004V42.7656C29.4043 42.4844 29.373 42.2188 29.3105 41.9688C29.252 41.7148 29.1582 41.4902 29.0293 41.2949C28.9043 41.0996 28.7441 40.9473 28.5488 40.8379C28.3574 40.7246 28.1289 40.668 27.8633 40.668C27.5977 40.668 27.3672 40.7246 27.1719 40.8379C26.9805 40.9473 26.8223 41.0996 26.6973 41.2949C26.5723 41.4902 26.4805 41.7148 26.4219 41.9688C26.3633 42.2188 26.334 42.4844 26.334 42.7656ZM33.418 40.8672V46H32.0059V39.6602H33.3535L33.418 40.8672ZM35.3574 39.6191L35.3457 40.9316C35.2598 40.916 35.166 40.9043 35.0645 40.8965C34.9668 40.8887 34.8691 40.8848 34.7715 40.8848C34.5293 40.8848 34.3164 40.9199 34.1328 40.9902C33.9492 41.0566 33.7949 41.1543 33.6699 41.2832C33.5488 41.4082 33.4551 41.5605 33.3887 41.7402C33.3223 41.9199 33.2832 42.1211 33.2715 42.3438L32.9492 42.3672C32.9492 41.9688 32.9883 41.5996 33.0664 41.2598C33.1445 40.9199 33.2617 40.6211 33.418 40.3633C33.5781 40.1055 33.7773 39.9043 34.0156 39.7598C34.2578 39.6152 34.5371 39.543 34.8535 39.543C34.9395 39.543 35.0312 39.5508 35.1289 39.5664C35.2305 39.582 35.3066 39.5996 35.3574 39.6191ZM37.7539 39.6602V46H36.3359V39.6602H37.7539ZM36.2422 37.9961C36.2422 37.7812 36.3125 37.6035 36.4531 37.4629C36.5977 37.3184 36.7969 37.2461 37.0508 37.2461C37.3008 37.2461 37.498 37.3184 37.6426 37.4629C37.7871 37.6035 37.8594 37.7812 37.8594 37.9961C37.8594 38.207 37.7871 38.3828 37.6426 38.5234C37.498 38.6641 37.3008 38.7344 37.0508 38.7344C36.7969 38.7344 36.5977 38.6641 36.4531 38.5234C36.3125 38.3828 36.2422 38.207 36.2422 37.9961ZM42.207 39.6602V40.6914H38.6328V39.6602H42.207ZM39.6641 38.1074H41.0762V44.248C41.0762 44.4434 41.1035 44.5938 41.1582 44.6992C41.2168 44.8008 41.2969 44.8691 41.3984 44.9043C41.5 44.9395 41.6191 44.957 41.7559 44.957C41.8535 44.957 41.9473 44.9512 42.0371 44.9395C42.127 44.9277 42.1992 44.916 42.2539 44.9043L42.2598 45.9824C42.1426 46.0176 42.0059 46.0488 41.8496 46.0762C41.6973 46.1035 41.5215 46.1172 41.3223 46.1172C40.998 46.1172 40.7109 46.0605 40.4609 45.9473C40.2109 45.8301 40.0156 45.6406 39.875 45.3789C39.7344 45.1172 39.6641 44.7695 39.6641 44.3359V38.1074ZM46.0918 46.1172C45.623 46.1172 45.1992 46.041 44.8203 45.8887C44.4453 45.7324 44.125 45.5156 43.8594 45.2383C43.5977 44.9609 43.3965 44.6348 43.2559 44.2598C43.1152 43.8848 43.0449 43.4805 43.0449 43.0469V42.8125C43.0449 42.3164 43.1172 41.8672 43.2617 41.4648C43.4062 41.0625 43.6074 40.7188 43.8652 40.4336C44.123 40.1445 44.4277 39.9238 44.7793 39.7715C45.1309 39.6191 45.5117 39.543 45.9219 39.543C46.375 39.543 46.7715 39.6191 47.1113 39.7715C47.4512 39.9238 47.7324 40.1387 47.9551 40.416C48.1816 40.6895 48.3496 41.0156 48.459 41.3945C48.5723 41.7734 48.6289 42.1914 48.6289 42.6484V43.252H43.7305V42.2383H47.2344V42.127C47.2266 41.873 47.1758 41.6348 47.082 41.4121C46.9922 41.1895 46.8535 41.0098 46.666 40.873C46.4785 40.7363 46.2285 40.668 45.916 40.668C45.6816 40.668 45.4727 40.7188 45.2891 40.8203C45.1094 40.918 44.959 41.0605 44.8379 41.248C44.7168 41.4355 44.623 41.6621 44.5566 41.9277C44.4941 42.1895 44.4629 42.4844 44.4629 42.8125V43.0469C44.4629 43.3242 44.5 43.582 44.5742 43.8203C44.6523 44.0547 44.7656 44.2598 44.9141 44.4355C45.0625 44.6113 45.2422 44.75 45.4531 44.8516C45.6641 44.9492 45.9043 44.998 46.1738 44.998C46.5137 44.998 46.8164 44.9297 47.082 44.793C47.3477 44.6562 47.5781 44.4629 47.7734 44.2129L48.5176 44.9336C48.3809 45.1328 48.2031 45.3242 47.9844 45.5078C47.7656 45.6875 47.498 45.834 47.1816 45.9473C46.8691 46.0605 46.5059 46.1172 46.0918 46.1172ZM53.2871 44.2832C53.2871 44.1426 53.252 44.0156 53.1816 43.9023C53.1113 43.7852 52.9766 43.6797 52.7773 43.5859C52.582 43.4922 52.293 43.4062 51.9102 43.3281C51.5742 43.2539 51.2656 43.166 50.9844 43.0645C50.707 42.959 50.4688 42.832 50.2695 42.6836C50.0703 42.5352 49.916 42.3594 49.8066 42.1562C49.6973 41.9531 49.6426 41.7188 49.6426 41.4531C49.6426 41.1953 49.6992 40.9512 49.8125 40.7207C49.9258 40.4902 50.0879 40.2871 50.2988 40.1113C50.5098 39.9355 50.7656 39.7969 51.0664 39.6953C51.3711 39.5938 51.7109 39.543 52.0859 39.543C52.6172 39.543 53.0723 39.6328 53.4512 39.8125C53.834 39.9883 54.127 40.2285 54.3301 40.5332C54.5332 40.834 54.6348 41.1738 54.6348 41.5527H53.2227C53.2227 41.3848 53.1797 41.2285 53.0938 41.084C53.0117 40.9355 52.8867 40.8164 52.7188 40.7266C52.5508 40.6328 52.3398 40.5859 52.0859 40.5859C51.8438 40.5859 51.6426 40.625 51.4824 40.7031C51.3262 40.7773 51.209 40.875 51.1309 40.9961C51.0566 41.1172 51.0195 41.25 51.0195 41.3945C51.0195 41.5 51.0391 41.5957 51.0781 41.6816C51.1211 41.7637 51.1914 41.8398 51.2891 41.9102C51.3867 41.9766 51.5195 42.0391 51.6875 42.0977C51.8594 42.1562 52.0742 42.2129 52.332 42.2676C52.8164 42.3691 53.2324 42.5 53.5801 42.6602C53.9316 42.8164 54.2012 43.0195 54.3887 43.2695C54.5762 43.5156 54.6699 43.8281 54.6699 44.207C54.6699 44.4883 54.6094 44.7461 54.4883 44.9805C54.3711 45.2109 54.1992 45.4121 53.9727 45.584C53.7461 45.752 53.4746 45.8828 53.1582 45.9766C52.8457 46.0703 52.4941 46.1172 52.1035 46.1172C51.5293 46.1172 51.043 46.0156 50.6445 45.8125C50.2461 45.6055 49.9434 45.3418 49.7363 45.0215C49.5332 44.6973 49.4316 44.3613 49.4316 44.0137H50.7969C50.8125 44.2754 50.8848 44.4844 51.0137 44.6406C51.1465 44.793 51.3105 44.9043 51.5059 44.9746C51.7051 45.041 51.9102 45.0742 52.1211 45.0742C52.375 45.0742 52.5879 45.041 52.7598 44.9746C52.9316 44.9043 53.0625 44.8105 53.1523 44.6934C53.2422 44.5723 53.2871 44.4355 53.2871 44.2832Z" fill="#3F51B5"/>
</svg>
