<svg width="61" height="55" viewBox="0 0 61 55" fill="none" xmlns="http://www.w3.org/2000/svg">
<path d="M29.0156 16.9844C29.4323 17.375 29.9271 17.5703 30.5 17.5703C31.0729 17.5703 31.5547 17.375 31.9453 16.9844C32.362 16.5677 32.5703 16.0729 32.5703 15.5C32.5703 14.9271 32.362 14.4453 31.9453 14.0547C31.5547 13.638 31.0729 13.4297 30.5 13.4297C29.9271 13.4297 29.4323 13.638 29.0156 14.0547C28.625 14.4453 28.4297 14.9271 28.4297 15.5C28.4297 16.0729 28.625 16.5677 29.0156 16.9844ZM26.3594 11.3984C27.5052 10.2526 28.8854 9.67969 30.5 9.67969C32.1146 9.67969 33.4818 10.2526 34.6016 11.3984C35.7474 12.5182 36.3203 13.8854 36.3203 15.5C36.3203 16.3073 36.112 17.2318 35.6953 18.2734C35.3047 19.3151 34.8229 20.2917 34.25 21.2031C33.6771 22.1146 33.1042 22.974 32.5312 23.7812C31.9844 24.5625 31.5156 25.1875 31.125 25.6562L30.5 26.3203C30.3438 26.138 30.1354 25.9036 29.875 25.6172C29.6146 25.3047 29.1458 24.7057 28.4688 23.8203C27.7917 22.9089 27.1927 22.0365 26.6719 21.2031C26.1771 20.3438 25.7214 19.3802 25.3047 18.3125C24.888 17.2448 24.6797 16.3073 24.6797 15.5C24.6797 13.8854 25.2396 12.5182 26.3594 11.3984Z" fill="#757575"/>
<path d="M19.0215 37.4688V46H17.5508L13.7246 39.8887V46H12.2539V37.4688H13.7246L17.5625 43.5918V37.4688H19.0215ZM23.4277 46.1172C22.959 46.1172 22.5352 46.041 22.1562 45.8887C21.7812 45.7324 21.4609 45.5156 21.1953 45.2383C20.9336 44.9609 20.7324 44.6348 20.5918 44.2598C20.4512 43.8848 20.3809 43.4805 20.3809 43.0469V42.8125C20.3809 42.3164 20.4531 41.8672 20.5977 41.4648C20.7422 41.0625 20.9434 40.7188 21.2012 40.4336C21.459 40.1445 21.7637 39.9238 22.1152 39.7715C22.4668 39.6191 22.8477 39.543 23.2578 39.543C23.7109 39.543 24.1074 39.6191 24.4473 39.7715C24.7871 39.9238 25.0684 40.1387 25.291 40.416C25.5176 40.6895 25.6855 41.0156 25.7949 41.3945C25.9082 41.7734 25.9648 42.1914 25.9648 42.6484V43.252H21.0664V42.2383H24.5703V42.127C24.5625 41.873 24.5117 41.6348 24.418 41.4121C24.3281 41.1895 24.1895 41.0098 24.002 40.873C23.8145 40.7363 23.5645 40.668 23.252 40.668C23.0176 40.668 22.8086 40.7188 22.625 40.8203C22.4453 40.918 22.2949 41.0605 22.1738 41.248C22.0527 41.4355 21.959 41.6621 21.8926 41.9277C21.8301 42.1895 21.7988 42.4844 21.7988 42.8125V43.0469C21.7988 43.3242 21.8359 43.582 21.9102 43.8203C21.9883 44.0547 22.1016 44.2598 22.25 44.4355C22.3984 44.6113 22.5781 44.75 22.7891 44.8516C23 44.9492 23.2402 44.998 23.5098 44.998C23.8496 44.998 24.1523 44.9297 24.418 44.793C24.6836 44.6562 24.9141 44.4629 25.1094 44.2129L25.8535 44.9336C25.7168 45.1328 25.5391 45.3242 25.3203 45.5078C25.1016 45.6875 24.834 45.834 24.5176 45.9473C24.2051 46.0605 23.8418 46.1172 23.4277 46.1172ZM30.6406 44.7285V41.7051C30.6406 41.4785 30.5996 41.2832 30.5176 41.1191C30.4355 40.9551 30.3105 40.8281 30.1426 40.7383C29.9785 40.6484 29.7715 40.6035 29.5215 40.6035C29.291 40.6035 29.0918 40.6426 28.9238 40.7207C28.7559 40.7988 28.625 40.9043 28.5312 41.0371C28.4375 41.1699 28.3906 41.3203 28.3906 41.4883H26.9844C26.9844 41.2383 27.0449 40.9961 27.166 40.7617C27.2871 40.5273 27.4629 40.3184 27.6934 40.1348C27.9238 39.9512 28.1992 39.8066 28.5195 39.7012C28.8398 39.5957 29.1992 39.543 29.5977 39.543C30.0742 39.543 30.4961 39.623 30.8633 39.7832C31.2344 39.9434 31.5254 40.1855 31.7363 40.5098C31.9512 40.8301 32.0586 41.2324 32.0586 41.7168V44.5352C32.0586 44.8242 32.0781 45.084 32.1172 45.3145C32.1602 45.541 32.2207 45.7383 32.2988 45.9062V46H30.8516C30.7852 45.8477 30.7324 45.6543 30.6934 45.4199C30.6582 45.1816 30.6406 44.9512 30.6406 44.7285ZM30.8457 42.1445L30.8574 43.0176H29.8438C29.582 43.0176 29.3516 43.043 29.1523 43.0938C28.9531 43.1406 28.7871 43.2109 28.6543 43.3047C28.5215 43.3984 28.4219 43.5117 28.3555 43.6445C28.2891 43.7773 28.2559 43.9277 28.2559 44.0957C28.2559 44.2637 28.2949 44.418 28.373 44.5586C28.4512 44.6953 28.5645 44.8027 28.7129 44.8809C28.8652 44.959 29.0488 44.998 29.2637 44.998C29.5527 44.998 29.8047 44.9395 30.0195 44.8223C30.2383 44.7012 30.4102 44.5547 30.5352 44.3828C30.6602 44.207 30.7266 44.041 30.7344 43.8848L31.1914 44.5117C31.1445 44.6719 31.0645 44.8438 30.9512 45.0273C30.8379 45.2109 30.6895 45.3867 30.5059 45.5547C30.3262 45.7188 30.1094 45.8535 29.8555 45.959C29.6055 46.0645 29.3164 46.1172 28.9883 46.1172C28.5742 46.1172 28.2051 46.0352 27.8809 45.8711C27.5566 45.7031 27.3027 45.4785 27.1191 45.1973C26.9355 44.9121 26.8438 44.5898 26.8438 44.2305C26.8438 43.8945 26.9062 43.5977 27.0312 43.3398C27.1602 43.0781 27.3477 42.8594 27.5938 42.6836C27.8438 42.5078 28.1484 42.375 28.5078 42.2852C28.8672 42.1914 29.2773 42.1445 29.7383 42.1445H30.8457ZM34.9531 40.8672V46H33.541V39.6602H34.8887L34.9531 40.8672ZM36.8926 39.6191L36.8809 40.9316C36.7949 40.916 36.7012 40.9043 36.5996 40.8965C36.502 40.8887 36.4043 40.8848 36.3066 40.8848C36.0645 40.8848 35.8516 40.9199 35.668 40.9902C35.4844 41.0566 35.3301 41.1543 35.2051 41.2832C35.084 41.4082 34.9902 41.5605 34.9238 41.7402C34.8574 41.9199 34.8184 42.1211 34.8066 42.3438L34.4844 42.3672C34.4844 41.9688 34.5234 41.5996 34.6016 41.2598C34.6797 40.9199 34.7969 40.6211 34.9531 40.3633C35.1133 40.1055 35.3125 39.9043 35.5508 39.7598C35.793 39.6152 36.0723 39.543 36.3887 39.543C36.4746 39.543 36.5664 39.5508 36.6641 39.5664C36.7656 39.582 36.8418 39.5996 36.8926 39.6191ZM37.7832 37H39.1953V44.6465L39.0605 46H37.7832V37ZM43.332 42.7715V42.8945C43.332 43.3633 43.2793 43.7949 43.1738 44.1895C43.0723 44.5801 42.916 44.9199 42.7051 45.209C42.498 45.498 42.2402 45.7227 41.9316 45.8828C41.627 46.0391 41.2734 46.1172 40.8711 46.1172C40.4766 46.1172 40.1328 46.043 39.8398 45.8945C39.5469 45.7461 39.3008 45.5352 39.1016 45.2617C38.9062 44.9883 38.748 44.6621 38.627 44.2832C38.5059 43.9043 38.4199 43.4863 38.3691 43.0293V42.6367C38.4199 42.1758 38.5059 41.7578 38.627 41.3828C38.748 41.0039 38.9062 40.6777 39.1016 40.4043C39.3008 40.127 39.5449 39.9141 39.834 39.7656C40.127 39.6172 40.4688 39.543 40.8594 39.543C41.2656 39.543 41.623 39.6211 41.9316 39.7773C42.2441 39.9336 42.5039 40.1562 42.7109 40.4453C42.918 40.7305 43.0723 41.0703 43.1738 41.4648C43.2793 41.8594 43.332 42.2949 43.332 42.7715ZM41.9199 42.8945V42.7715C41.9199 42.4863 41.8965 42.2188 41.8496 41.9688C41.8027 41.7148 41.7246 41.4922 41.6152 41.3008C41.5098 41.1094 41.3652 40.959 41.1816 40.8496C41.002 40.7363 40.7773 40.6797 40.5078 40.6797C40.2578 40.6797 40.043 40.7227 39.8633 40.8086C39.6836 40.8945 39.5332 41.0117 39.4121 41.1602C39.291 41.3086 39.1953 41.4805 39.125 41.6758C39.0586 41.8711 39.0137 42.082 38.9902 42.3086V43.3691C39.0254 43.6621 39.0996 43.9316 39.2129 44.1777C39.3301 44.4199 39.4941 44.6152 39.7051 44.7637C39.916 44.9082 40.1875 44.9805 40.5195 44.9805C40.7812 44.9805 41.002 44.9277 41.1816 44.8223C41.3613 44.7168 41.5039 44.5703 41.6094 44.3828C41.7188 44.1914 41.7969 43.9688 41.8438 43.7148C41.8945 43.4609 41.9199 43.1875 41.9199 42.8945ZM46.2969 45.3086L48.0195 39.6602H49.5312L46.9883 46.9668C46.9297 47.123 46.8535 47.293 46.7598 47.4766C46.666 47.6602 46.543 47.834 46.3906 47.998C46.2422 48.166 46.0566 48.3008 45.834 48.4023C45.6113 48.5078 45.3418 48.5605 45.0254 48.5605C44.9004 48.5605 44.7793 48.5488 44.6621 48.5254C44.5488 48.5059 44.4414 48.4844 44.3398 48.4609L44.334 47.3828C44.373 47.3867 44.4199 47.3906 44.4746 47.3945C44.5332 47.3984 44.5801 47.4004 44.6152 47.4004C44.8496 47.4004 45.0449 47.3711 45.2012 47.3125C45.3574 47.2578 45.4844 47.168 45.582 47.043C45.6836 46.918 45.7695 46.75 45.8398 46.5391L46.2969 45.3086ZM45.3242 39.6602L46.8301 44.4062L47.082 45.8945L46.1035 46.1465L43.8008 39.6602H45.3242Z" fill="#757575"/>
</svg>
