<svg width="61" height="55" viewBox="0 0 61 55" fill="none" xmlns="http://www.w3.org/2000/svg">
<path d="M30.5 14.6797H31.75V18.1953L34.6797 19.9531L34.0547 20.9688L30.5 18.8203V14.6797ZM26.0078 12.6875C27.4922 11.2292 29.263 10.5 31.3203 10.5C33.3776 10.5 35.1354 11.2292 36.5938 12.6875C38.0781 14.1458 38.8203 15.9167 38.8203 18C38.8203 20.0833 38.0781 21.8542 36.5938 23.3125C35.1354 24.7708 33.3776 25.5 31.3203 25.5C30.4609 25.5 29.5104 25.2917 28.4688 24.875C27.4531 24.4323 26.6458 23.9115 26.0469 23.3125L27.2188 22.1016C28.3646 23.2474 29.7318 23.8203 31.3203 23.8203C32.9349 23.8203 34.3151 23.2604 35.4609 22.1406C36.6068 20.9948 37.1797 19.6146 37.1797 18C37.1797 16.3854 36.6068 15.0182 35.4609 13.8984C34.3151 12.7526 32.9349 12.1797 31.3203 12.1797C29.7057 12.1797 28.3255 12.7526 27.1797 13.8984C26.0599 15.0182 25.5 16.3854 25.5 18H28L24.6406 21.3594L24.5625 21.2422L21.3203 18H23.8203C23.8203 15.9167 24.5495 14.1458 26.0078 12.6875Z" fill="black" fill-opacity="0.6"/>
<path d="M12.6816 37.4688H15.6992C16.3477 37.4688 16.9004 37.5664 17.3574 37.7617C17.8145 37.957 18.1641 38.2461 18.4062 38.6289C18.6523 39.0078 18.7754 39.4766 18.7754 40.0352C18.7754 40.4609 18.6973 40.8359 18.541 41.1602C18.3848 41.4844 18.1641 41.7578 17.8789 41.9805C17.5938 42.1992 17.2539 42.3691 16.8594 42.4902L16.4141 42.707H13.7012L13.6895 41.541H15.7227C16.0742 41.541 16.3672 41.4785 16.6016 41.3535C16.8359 41.2285 17.0117 41.0586 17.1289 40.8438C17.25 40.625 17.3105 40.3789 17.3105 40.1055C17.3105 39.8086 17.252 39.5508 17.1348 39.332C17.0215 39.1094 16.8457 38.9395 16.6074 38.8223C16.3691 38.7012 16.0664 38.6406 15.6992 38.6406H14.1523V46H12.6816V37.4688ZM17.5508 46L15.5469 42.168L17.0879 42.1621L19.1211 45.9238V46H17.5508ZM22.8945 46.1172C22.4258 46.1172 22.002 46.041 21.623 45.8887C21.248 45.7324 20.9277 45.5156 20.6621 45.2383C20.4004 44.9609 20.1992 44.6348 20.0586 44.2598C19.918 43.8848 19.8477 43.4805 19.8477 43.0469V42.8125C19.8477 42.3164 19.9199 41.8672 20.0645 41.4648C20.209 41.0625 20.4102 40.7188 20.668 40.4336C20.9258 40.1445 21.2305 39.9238 21.582 39.7715C21.9336 39.6191 22.3145 39.543 22.7246 39.543C23.1777 39.543 23.5742 39.6191 23.9141 39.7715C24.2539 39.9238 24.5352 40.1387 24.7578 40.416C24.9844 40.6895 25.1523 41.0156 25.2617 41.3945C25.375 41.7734 25.4316 42.1914 25.4316 42.6484V43.252H20.5332V42.2383H24.0371V42.127C24.0293 41.873 23.9785 41.6348 23.8848 41.4121C23.7949 41.1895 23.6562 41.0098 23.4688 40.873C23.2812 40.7363 23.0312 40.668 22.7188 40.668C22.4844 40.668 22.2754 40.7188 22.0918 40.8203C21.9121 40.918 21.7617 41.0605 21.6406 41.248C21.5195 41.4355 21.4258 41.6621 21.3594 41.9277C21.2969 42.1895 21.2656 42.4844 21.2656 42.8125V43.0469C21.2656 43.3242 21.3027 43.582 21.377 43.8203C21.4551 44.0547 21.5684 44.2598 21.7168 44.4355C21.8652 44.6113 22.0449 44.75 22.2559 44.8516C22.4668 44.9492 22.707 44.998 22.9766 44.998C23.3164 44.998 23.6191 44.9297 23.8848 44.793C24.1504 44.6562 24.3809 44.4629 24.5762 44.2129L25.3203 44.9336C25.1836 45.1328 25.0059 45.3242 24.7871 45.5078C24.5684 45.6875 24.3008 45.834 23.9844 45.9473C23.6719 46.0605 23.3086 46.1172 22.8945 46.1172ZM29.123 44.9922C29.3535 44.9922 29.5605 44.9473 29.7441 44.8574C29.9316 44.7637 30.082 44.6348 30.1953 44.4707C30.3125 44.3066 30.377 44.1172 30.3887 43.9023H31.7188C31.7109 44.3125 31.5898 44.6855 31.3555 45.0215C31.1211 45.3574 30.8105 45.625 30.4238 45.8242C30.0371 46.0195 29.6094 46.1172 29.1406 46.1172C28.6562 46.1172 28.2344 46.0352 27.875 45.8711C27.5156 45.7031 27.2168 45.4727 26.9785 45.1797C26.7402 44.8867 26.5605 44.5488 26.4395 44.166C26.3223 43.7832 26.2637 43.373 26.2637 42.9355V42.7305C26.2637 42.293 26.3223 41.8828 26.4395 41.5C26.5605 41.1133 26.7402 40.7734 26.9785 40.4805C27.2168 40.1875 27.5156 39.959 27.875 39.7949C28.2344 39.627 28.6543 39.543 29.1348 39.543C29.6426 39.543 30.0879 39.6445 30.4707 39.8477C30.8535 40.0469 31.1543 40.3262 31.373 40.6855C31.5957 41.041 31.7109 41.4551 31.7188 41.9277H30.3887C30.377 41.6934 30.3184 41.4824 30.2129 41.2949C30.1113 41.1035 29.9668 40.9512 29.7793 40.8379C29.5957 40.7246 29.375 40.668 29.1172 40.668C28.832 40.668 28.5957 40.7266 28.4082 40.8438C28.2207 40.957 28.0742 41.1133 27.9688 41.3125C27.8633 41.5078 27.7871 41.7285 27.7402 41.9746C27.6973 42.2168 27.6758 42.4688 27.6758 42.7305V42.9355C27.6758 43.1973 27.6973 43.4512 27.7402 43.6973C27.7832 43.9434 27.8574 44.1641 27.9629 44.3594C28.0723 44.5508 28.2207 44.7051 28.4082 44.8223C28.5957 44.9355 28.834 44.9922 29.123 44.9922ZM35.5977 46.1172C35.1289 46.1172 34.7051 46.041 34.3262 45.8887C33.9512 45.7324 33.6309 45.5156 33.3652 45.2383C33.1035 44.9609 32.9023 44.6348 32.7617 44.2598C32.6211 43.8848 32.5508 43.4805 32.5508 43.0469V42.8125C32.5508 42.3164 32.623 41.8672 32.7676 41.4648C32.9121 41.0625 33.1133 40.7188 33.3711 40.4336C33.6289 40.1445 33.9336 39.9238 34.2852 39.7715C34.6367 39.6191 35.0176 39.543 35.4277 39.543C35.8809 39.543 36.2773 39.6191 36.6172 39.7715C36.957 39.9238 37.2383 40.1387 37.4609 40.416C37.6875 40.6895 37.8555 41.0156 37.9648 41.3945C38.0781 41.7734 38.1348 42.1914 38.1348 42.6484V43.252H33.2363V42.2383H36.7402V42.127C36.7324 41.873 36.6816 41.6348 36.5879 41.4121C36.498 41.1895 36.3594 41.0098 36.1719 40.873C35.9844 40.7363 35.7344 40.668 35.4219 40.668C35.1875 40.668 34.9785 40.7188 34.7949 40.8203C34.6152 40.918 34.4648 41.0605 34.3438 41.248C34.2227 41.4355 34.1289 41.6621 34.0625 41.9277C34 42.1895 33.9688 42.4844 33.9688 42.8125V43.0469C33.9688 43.3242 34.0059 43.582 34.0801 43.8203C34.1582 44.0547 34.2715 44.2598 34.4199 44.4355C34.5684 44.6113 34.748 44.75 34.959 44.8516C35.1699 44.9492 35.4102 44.998 35.6797 44.998C36.0195 44.998 36.3223 44.9297 36.5879 44.793C36.8535 44.6562 37.084 44.4629 37.2793 44.2129L38.0234 44.9336C37.8867 45.1328 37.709 45.3242 37.4902 45.5078C37.2715 45.6875 37.0039 45.834 36.6875 45.9473C36.375 46.0605 36.0117 46.1172 35.5977 46.1172ZM40.6367 41.0137V46H39.2246V39.6602H40.5547L40.6367 41.0137ZM40.3848 42.5957L39.9277 42.5898C39.9316 42.1406 39.9941 41.7285 40.1152 41.3535C40.2402 40.9785 40.4121 40.6562 40.6309 40.3867C40.8535 40.1172 41.1191 39.9102 41.4277 39.7656C41.7363 39.6172 42.0801 39.543 42.459 39.543C42.7637 39.543 43.0391 39.5859 43.2852 39.6719C43.5352 39.7539 43.748 39.8887 43.9238 40.0762C44.1035 40.2637 44.2402 40.5078 44.334 40.8086C44.4277 41.1055 44.4746 41.4707 44.4746 41.9043V46H43.0566V41.8984C43.0566 41.5938 43.0117 41.3535 42.9219 41.1777C42.8359 40.998 42.709 40.8711 42.541 40.7969C42.377 40.7188 42.1719 40.6797 41.9258 40.6797C41.6836 40.6797 41.4668 40.7305 41.2754 40.832C41.084 40.9336 40.9219 41.0723 40.7891 41.248C40.6602 41.4238 40.5605 41.627 40.4902 41.8574C40.4199 42.0879 40.3848 42.334 40.3848 42.5957ZM48.8223 39.6602V40.6914H45.248V39.6602H48.8223ZM46.2793 38.1074H47.6914V44.248C47.6914 44.4434 47.7188 44.5938 47.7734 44.6992C47.832 44.8008 47.9121 44.8691 48.0137 44.9043C48.1152 44.9395 48.2344 44.957 48.3711 44.957C48.4688 44.957 48.5625 44.9512 48.6523 44.9395C48.7422 44.9277 48.8145 44.916 48.8691 44.9043L48.875 45.9824C48.7578 46.0176 48.6211 46.0488 48.4648 46.0762C48.3125 46.1035 48.1367 46.1172 47.9375 46.1172C47.6133 46.1172 47.3262 46.0605 47.0762 45.9473C46.8262 45.8301 46.6309 45.6406 46.4902 45.3789C46.3496 45.1172 46.2793 44.7695 46.2793 44.3359V38.1074Z" fill="black" fill-opacity="0.6"/>
</svg>
